<svg width="94" height="92" viewBox="0 0 94 92" fill="none" xmlns="http://www.w3.org/2000/svg">
<path fill-rule="evenodd" clip-rule="evenodd" d="M46.8217 0C20.9527 0 0 20.9527 0 46.8217C0 67.5403 13.4027 85.0399 32.0143 91.2437C34.3554 91.6534 35.2333 90.2488 35.2333 89.0197C35.2333 87.9077 35.1748 84.2205 35.1748 80.2992C23.4108 82.4647 20.3674 77.4313 19.431 74.7976C18.9042 73.4515 16.6217 69.2961 14.6318 68.1841C12.993 67.3062 10.6519 65.1407 14.5732 65.0821C18.2604 65.0236 20.8942 68.4767 21.7721 69.8813C25.986 76.9631 32.7166 74.9732 35.4089 73.7441C35.8186 70.7007 37.0476 68.6523 38.3938 67.4817C27.9759 66.3112 17.0899 62.2728 17.0899 44.3635C17.0899 39.2717 18.9042 35.0577 21.8891 31.7802C21.4209 30.6097 19.7822 25.8104 22.3573 19.3725C22.3573 19.3725 26.2787 18.1434 35.2333 24.1717C38.979 23.1182 42.9589 22.5915 46.9387 22.5915C50.9186 22.5915 54.8984 23.1182 58.6441 24.1717C67.5988 18.0849 71.5201 19.3725 71.5201 19.3725C74.0953 25.8104 72.4565 30.6097 71.9883 31.7802C74.9732 35.0577 76.7875 39.2131 76.7875 44.3635C76.7875 62.3313 65.843 66.3112 55.4251 67.4817C57.1224 68.9449 58.5856 71.7542 58.5856 76.1437C58.5856 82.4061 58.5271 87.4395 58.5271 89.0197C58.5271 90.2488 59.405 91.7119 61.7461 91.2437C71.0409 88.1056 79.1176 82.1318 84.8395 74.1631C90.5615 66.1943 93.6405 56.6319 93.6433 46.8217C93.6433 20.9527 72.6906 0 46.8217 0Z" fill="#66534E"/>
</svg>
