<svg width="93" height="93" viewBox="0 0 93 93" fill="none" xmlns="http://www.w3.org/2000/svg">
<path d="M18.224 0C8.20224 0 0 8.20206 0 18.224V74.7765C0 84.7982 8.20206 92.9975 18.224 92.9975H74.7765C84.7983 92.9975 92.9975 84.7983 92.9975 74.7765V18.224C92.9975 8.20224 84.7983 0 74.7765 0H18.224ZM22.8077 15.3465C27.6129 15.3465 30.5727 18.501 30.6641 22.6476C30.6641 26.7027 27.6127 29.9459 22.7147 29.9459H22.6246C17.9108 29.9459 14.8641 26.7029 14.8641 22.6476C14.8641 18.5011 18.003 15.3465 22.8076 15.3465H22.8077ZM64.2171 34.7272C73.4585 34.7272 80.3862 40.7675 80.3862 53.7476V77.9793H66.3418V55.3722C66.3418 49.6913 64.3092 45.8155 59.2266 45.8155C55.3465 45.8155 53.0338 48.4279 52.0184 50.9514C51.6474 51.8543 51.5563 53.1152 51.5563 54.3782V77.9793H37.5119C37.5119 77.9793 37.6962 39.6836 37.5119 35.7183H51.5591V41.7029C53.4255 38.8233 56.7639 34.7271 64.2171 34.7271V34.7272ZM15.6925 35.7214H29.7369V77.9795H15.6925V35.7214V35.7214Z" fill="#66534E"/>
</svg>
